<svg width="98" height="89" viewBox="0 0 98 89" fill="none" xmlns="http://www.w3.org/2000/svg">
<g id="Group">
<g id="Group_2">
<g id="Group_3">
<path id="Vector" d="M95.1177 75.872H88.5295V55.1927C88.5295 52.1917 86.0663 49.7501 83.0388 49.7501H78.1767V29.0709C78.1767 26.0699 75.7135 23.6283 72.6859 23.6283H55.09C55.7986 23.0927 56.5377 22.508 57.2796 21.882C62.4025 17.559 65.0001 13.5237 65.0001 9.88855C65.0001 4.98735 60.9775 1 56.0329 1C53.2038 1 50.6513 2.30749 49 4.37365C47.3489 2.30787 44.7963 1 41.9673 1C37.0227 1 33.0001 4.98735 33.0001 9.88855C33.0001 13.5239 35.5977 17.559 40.7207 21.8822C41.4625 22.5082 42.2018 23.0925 42.9104 23.6285H25.3144C22.2869 23.6285 19.8237 26.0699 19.8237 29.0711V49.7503H14.9614C11.9339 49.7503 9.47069 52.1917 9.47069 55.1929V75.8722H2.88231C1.843 75.8722 1 76.7074 1 77.738V86.1342C1 87.1648 1.843 88 2.88231 88H95.1177C96.1572 88 97 87.1646 97 86.1342V77.738C97 76.7072 96.157 75.872 95.1177 75.872ZM36.7647 9.88855C36.7647 7.04514 39.0985 4.7318 41.9671 4.7318C44.6007 4.7318 46.8205 6.68365 47.1308 9.27207C47.2433 10.2108 48.0464 10.9178 49.0002 10.9178C49.954 10.9178 50.7571 10.2108 50.8696 9.27207C51.1797 6.68365 53.3995 4.7318 56.0333 4.7318C58.9017 4.7318 61.2353 7.04514 61.2353 9.88855C61.2353 14.2041 54.0955 20.14 49.0037 23.3084C45.0115 20.7938 36.7647 14.6281 36.7647 9.88855ZM23.5883 29.0709C23.5883 28.1275 24.3625 27.3599 25.3144 27.3599H72.6858C73.6377 27.3599 74.4119 28.1275 74.4119 29.0709V34.8356C74.3687 34.7888 74.3241 34.7402 74.2784 34.6901C73.3221 33.6439 72.0126 32.2111 69.4726 32.2111C66.9316 32.2111 65.6215 33.6441 64.6651 34.6903C63.8504 35.5812 63.4863 35.9427 62.6491 35.9427C61.8119 35.9427 61.4479 35.5811 60.6333 34.6903C59.6768 33.6441 58.3668 32.2111 55.8256 32.2111C53.2861 32.2111 51.9766 33.6435 51.0203 34.6893C50.2052 35.5811 49.8407 35.9427 49.0021 35.9427C48.1649 35.9427 47.8009 35.5811 46.9862 34.6903C46.0298 33.6441 44.7198 32.2111 42.1786 32.2111C39.6391 32.2111 38.3296 33.6435 37.3733 34.6893C36.5582 35.5811 36.1938 35.9427 35.3551 35.9427C34.5166 35.9427 34.1521 35.5809 33.337 34.6895C32.3808 33.6437 31.0713 32.2111 28.5316 32.2111C25.9909 32.2111 24.6809 33.6437 23.7242 34.6897C23.6776 34.7406 23.6326 34.7901 23.5885 34.8374L23.5883 29.0709ZM26.5133 37.1961C27.3284 36.3048 27.6929 35.9431 28.5314 35.9431C29.3686 35.9431 29.7327 36.3048 30.5474 37.1956C31.5038 38.2418 32.8139 39.6747 35.3549 39.6747C37.8961 39.6747 39.2061 38.2418 40.1626 37.1956C40.9773 36.3046 41.3412 35.9431 42.1784 35.9431C43.0171 35.9431 43.3816 36.305 44.1966 37.1965C45.1529 38.2423 46.4624 39.6747 49.0019 39.6747C51.5431 39.6747 52.8531 38.2418 53.8096 37.1956C54.6243 36.3046 54.9882 35.9431 55.8254 35.9431C56.6641 35.9431 57.0286 36.305 57.8436 37.1965C58.7999 38.2423 60.1094 39.6747 62.6489 39.6747C65.1886 39.6747 66.4981 38.2423 67.4543 37.1963C68.2694 36.3048 68.6339 35.9431 69.4724 35.9431C70.3098 35.9431 70.6737 36.3048 71.4882 37.1958C72.1733 37.9453 73.0427 38.8908 74.4134 39.3681L74.4117 39.371V49.7501H23.5883V39.3712L23.5836 39.3694C24.9565 38.8926 25.8272 37.9463 26.5133 37.1961ZM14.9614 53.4818H83.0386C83.9905 53.4818 84.7647 54.2493 84.7647 55.1927V59.4375C83.2604 59.891 82.3041 60.8385 81.5517 61.5843C80.6283 62.4995 80.1751 62.9043 79.1159 62.9043C78.0578 62.9043 77.6054 62.4998 76.6821 61.5849C75.6552 60.5669 74.2484 59.1725 71.5864 59.1725C68.9245 59.1725 67.5177 60.5668 66.4907 61.5849C65.5679 62.4997 65.1151 62.9043 64.057 62.9043C62.9989 62.9043 62.5465 62.4998 61.6233 61.5849C60.5963 60.5669 59.1895 59.1725 56.5276 59.1725C53.8656 59.1725 52.4588 60.5668 51.4319 61.5849C50.509 62.4997 50.0562 62.9043 48.9981 62.9043C47.9401 62.9043 47.4876 62.4998 46.5644 61.5849C45.5374 60.5669 44.1306 59.1725 41.4687 59.1725C38.806 59.1725 37.3997 60.567 36.3728 61.5854C35.4505 62.4999 34.9979 62.9043 33.9411 62.9043C32.8831 62.9043 32.4306 62.4998 31.5074 61.5849C30.4804 60.5669 29.0736 59.1725 26.4117 59.1725C23.7498 59.1725 22.3429 60.5668 21.316 61.5849C20.3931 62.4997 19.9403 62.9043 18.8823 62.9043C17.8242 62.9043 17.3717 62.4998 16.4485 61.5849C15.6959 60.8389 14.7394 59.891 13.2351 59.4377V55.1927C13.2355 54.2493 14.0095 53.4818 14.9614 53.4818ZM13.2353 63.6947L13.7866 64.2238C14.8135 65.2418 16.2203 66.6363 18.8823 66.6363C21.5442 66.6363 22.951 65.242 23.9779 64.2238C24.9008 63.3091 25.3536 62.9045 26.4117 62.9045C27.4698 62.9045 27.9222 63.3091 28.8454 64.2238C29.8724 65.2418 31.2792 66.6363 33.9411 66.6363C36.6021 66.6363 38.0084 65.2422 39.0351 64.224C39.9578 63.3091 40.4108 62.9045 41.4689 62.9045C42.5269 62.9045 42.9794 63.3091 43.9026 64.2238C44.9296 65.2418 46.3364 66.6363 48.9983 66.6363C51.6602 66.6363 53.0671 65.242 54.094 64.2238C55.0169 63.3091 55.4697 62.9045 56.5278 62.9045C57.5858 62.9045 58.0382 63.3091 58.9615 64.2238C59.9884 65.2418 61.3952 66.6363 64.0572 66.6363C66.7191 66.6363 68.1259 65.242 69.1529 64.2238C70.0757 63.3091 70.5286 62.9045 71.5866 62.9045C72.6447 62.9045 73.0973 63.3091 74.0204 64.2238C75.0473 65.2418 76.4541 66.6363 79.1161 66.6363C81.7789 66.6363 83.1861 65.242 84.2136 64.2237C84.4165 64.0226 84.5959 63.8475 84.7649 63.6947V75.8722H13.2353V63.6947ZM93.2354 84.2682H4.76462V79.6036H93.2352V84.2682H93.2354Z" stroke="#234D9F" stroke-width="1.5"/>
<path id="Vector_2" d="M64.8735 46.9826C65.3704 46.9826 65.8541 46.783 66.2042 46.436C66.5543 46.089 66.756 45.6076 66.756 45.1168C66.756 44.6243 66.5546 44.1448 66.2042 43.7976C65.8543 43.4487 65.3704 43.251 64.8735 43.251C64.3785 43.251 63.8929 43.4487 63.5426 43.7976C63.1926 44.1446 62.9912 44.6259 62.9912 45.1168C62.9912 45.6076 63.1924 46.087 63.5426 46.436C63.8927 46.783 64.3783 46.9826 64.8735 46.9826Z" stroke="#234D9F" stroke-width="1.5"/>
<path id="Vector_3" d="M54.2915 46.9826C55.3308 46.9826 56.1738 46.1466 56.1738 45.1168C56.1738 44.0849 55.3306 43.251 54.2915 43.251C53.2524 43.251 52.4092 44.0849 52.4092 45.1168C52.4092 46.1466 53.2527 46.9826 54.2915 46.9826Z" stroke="#234D9F" stroke-width="1.5"/>
<path id="Vector_4" d="M43.7085 46.9826C44.7478 46.9826 45.5908 46.1466 45.5908 45.1168C45.5908 44.0849 44.7476 43.251 43.7085 43.251C42.6694 43.251 41.8262 44.0849 41.8262 45.1168C41.8262 46.1466 42.6694 46.9826 43.7085 46.9826Z" stroke="#234D9F" stroke-width="1.5"/>
<path id="Vector_5" d="M33.1265 46.9826C33.6215 46.9826 34.1071 46.783 34.4573 46.436C34.8072 46.089 35.009 45.6076 35.009 45.1168C35.009 44.6243 34.8076 44.1448 34.4573 43.7976C34.1073 43.4487 33.6216 43.251 33.1265 43.251C32.6296 43.251 32.1458 43.4487 31.7956 43.7976C31.4436 44.1446 31.2441 44.6241 31.2441 45.1168C31.2441 45.6074 31.4436 46.0888 31.7956 46.436C32.1458 46.783 32.6296 46.9826 33.1265 46.9826Z" stroke="#234D9F" stroke-width="1.5"/>
<path id="Vector_6" d="M76.9526 69.1855C76.4576 69.1855 75.972 69.3852 75.6218 69.7322C75.2717 70.0791 75.0703 70.5586 75.0703 71.0514C75.0703 71.542 75.2715 72.0215 75.6218 72.3706C75.9718 72.7176 76.4574 72.9172 76.9526 72.9172C77.4478 72.9172 77.9332 72.7176 78.2833 72.3706C78.6334 72.0236 78.8351 71.5422 78.8351 71.0514C78.8351 70.5588 78.6337 70.0793 78.2833 69.7322C77.9334 69.3853 77.4478 69.1855 76.9526 69.1855Z" stroke="#234D9F" stroke-width="1.5"/>
<path id="Vector_7" d="M43.4097 69.1855C42.3705 69.1855 41.5273 70.0197 41.5273 71.0514C41.5273 72.0814 42.3707 72.9172 43.4097 72.9172C44.4488 72.9172 45.292 72.0812 45.292 71.0514C45.292 70.0197 44.4486 69.1855 43.4097 69.1855Z" stroke="#234D9F" stroke-width="1.5"/>
<path id="Vector_8" d="M32.228 69.1855C31.1889 69.1855 30.3457 70.0197 30.3457 71.0514C30.3457 72.0814 31.1893 72.9172 32.228 72.9172C33.2673 72.9172 34.1103 72.0812 34.1103 71.0514C34.1103 70.0197 33.2671 69.1855 32.228 69.1855Z" stroke="#234D9F" stroke-width="1.5"/>
<path id="Vector_9" d="M65.772 69.1855C64.7328 69.1855 63.8896 70.0197 63.8896 71.0514C63.8896 72.0814 64.733 72.9172 65.772 72.9172C66.8113 72.9172 67.6543 72.0812 67.6543 71.0514C67.6545 70.0197 66.8113 69.1855 65.772 69.1855Z" stroke="#234D9F" stroke-width="1.5"/>
<path id="Vector_10" d="M54.5903 69.1855C53.551 69.1855 52.708 70.0197 52.708 71.0514C52.708 72.0814 53.5514 72.9172 54.5903 72.9172C55.6294 72.9172 56.4726 72.0812 56.4726 71.0514C56.4726 70.0197 55.6293 69.1855 54.5903 69.1855Z" stroke="#234D9F" stroke-width="1.5"/>
<path id="Vector_11" d="M21.0475 69.1855C20.5525 69.1855 20.0669 69.3833 19.7167 69.7303C19.3666 70.0791 19.165 70.5586 19.165 71.0514C19.165 71.542 19.3662 72.0234 19.7167 72.3706C20.0667 72.7176 20.5524 72.9172 21.0475 72.9172C21.5427 72.9172 22.0282 72.7176 22.3782 72.3706C22.7283 72.0236 22.9299 71.5422 22.9299 71.0514C22.9299 70.5588 22.7285 70.0793 22.3782 69.7303C22.0282 69.3835 21.5425 69.1855 21.0475 69.1855Z" stroke="#234D9F" stroke-width="1.5"/>
</g>
</g>
</g>
</svg>
