<svg width="69" height="93" viewBox="0 0 69 93" fill="none" xmlns="http://www.w3.org/2000/svg">
<g id="outline">
<path id="Vector" d="M46.5625 2.51875V4.0375H66.3063C66.709 4.0375 67.0953 4.19751 67.3802 4.48233C67.665 4.76715 67.825 5.15345 67.825 5.55625V90.6062C67.825 91.009 67.665 91.3953 67.3802 91.6802C67.0953 91.965 66.709 92.125 66.3063 92.125H2.51875C2.11595 92.125 1.72965 91.965 1.44483 91.6802C1.16001 91.3953 1 91.009 1 90.6062V5.55625C1 5.15345 1.16001 4.76715 1.44483 4.48233C1.72965 4.19751 2.11595 4.0375 2.51875 4.0375H22.2625V2.51875M46.5625 2.51875C46.5625 2.11595 46.4025 1.72965 46.1177 1.44483C45.8328 1.16001 45.4465 1 45.0437 1H23.7812C23.3785 1 22.9921 1.16001 22.7073 1.44483C22.4225 1.72965 22.2625 2.11595 22.2625 2.51875M46.5625 2.51875V8.59375C46.5575 9.11231 46.4629 9.62611 46.2831 10.1125H60.2312C60.634 10.1125 61.0203 10.2725 61.3052 10.5573C61.59 10.8422 61.75 11.2285 61.75 11.6312V48.0812V84.5312C61.75 84.934 61.59 85.3203 61.3052 85.6052C61.0203 85.89 60.634 86.05 60.2312 86.05H8.59375C8.19095 86.05 7.80465 85.89 7.51983 85.6052C7.23501 85.3203 7.075 84.934 7.075 84.5312V11.6312C7.075 11.2285 7.23501 10.8422 7.51983 10.5573C7.80465 10.2725 8.19095 10.1125 8.59375 10.1125H22.542C22.3621 9.62611 22.2675 9.11231 22.2625 8.59375V2.51875M25.3 4.0375H43.525V8.59375C43.525 8.99655 43.365 9.38285 43.0802 9.66767C42.7953 9.95249 42.409 10.1125 42.0062 10.1125H26.8187C26.416 10.1125 26.0297 9.95249 25.7448 9.66767C25.46 9.38285 25.3 8.99655 25.3 8.59375V4.0375Z" stroke="#234D9F" stroke-width="1.5"/>
<path id="Vector_2" d="M22.2623 37.4493C23.9848 37.4479 25.6715 36.9583 27.1271 36.0373C28.5826 35.1163 29.7473 33.8016 30.4862 32.2457C31.225 30.6898 31.5078 28.9563 31.3016 27.2462C31.0955 25.5362 30.4089 23.9196 29.3215 22.5838L31.0908 20.1067C31.3067 19.7787 31.3872 19.3798 31.3153 18.9937C31.2434 18.6076 31.0248 18.2644 30.7053 18.036C30.3857 17.8077 29.9902 17.712 29.6016 17.769C29.2131 17.8261 28.8617 18.0314 28.6213 18.3419L27.0206 20.5806C25.8205 19.8405 24.465 19.389 23.0608 19.2616C21.6566 19.1342 20.242 19.3344 18.9284 19.8464C17.6147 20.3584 16.4377 21.1683 15.4901 22.2123C14.5424 23.2563 13.85 24.506 13.4672 25.863C13.0845 27.22 13.0218 28.6473 13.2842 30.0326C13.5465 31.4179 14.1268 32.7234 14.9793 33.8465C15.8318 34.9695 16.9332 35.8794 18.197 36.5046C19.4608 37.1298 20.8524 37.4531 22.2623 37.4493ZM22.2623 22.2618C23.309 22.2682 24.3357 22.5483 25.2406 23.0743L22.0679 27.5136L20.2986 25.7443C20.0121 25.4676 19.6285 25.3146 19.2303 25.318C18.8321 25.3215 18.4511 25.4812 18.1696 25.7628C17.888 26.0444 17.7282 26.4253 17.7248 26.8235C17.7213 27.2217 17.8744 27.6054 18.1511 27.8918L21.1886 30.9293C21.4733 31.2142 21.8595 31.3742 22.2623 31.3743C22.3033 31.3743 22.3458 31.3743 22.3869 31.3743C22.6067 31.3559 22.8199 31.2899 23.0116 31.1808C23.2033 31.0717 23.369 30.9221 23.4971 30.7425L27.4458 25.2158C28.0238 26.1546 28.3323 27.2344 28.3373 28.3368C28.3373 29.5383 27.981 30.7129 27.3135 31.7119C26.646 32.7109 25.6972 33.4896 24.5871 33.9494C23.4771 34.4092 22.2556 34.5295 21.0771 34.2951C19.8987 34.0607 18.8162 33.4821 17.9666 32.6325C17.117 31.7829 16.5384 30.7004 16.304 29.522C16.0696 28.3435 16.1899 27.1221 16.6497 26.012C17.1095 24.9019 17.8882 23.9532 18.8872 23.2856C19.8863 22.6181 21.0608 22.2618 22.2623 22.2618Z" stroke="#234D9F" stroke-width="1.5"/>
<path id="Vector_3" d="M22.2623 58.712C23.9848 58.7105 25.6715 58.2209 27.1271 57.3C28.5826 56.379 29.7473 55.0643 30.4862 53.5084C31.225 51.9525 31.5078 50.219 31.3016 48.5089C31.0955 46.7989 30.4089 45.1823 29.3215 43.8465L31.0908 41.3694C31.3067 41.0414 31.3872 40.6424 31.3153 40.2564C31.2434 39.8703 31.0248 39.5271 30.7053 39.2987C30.3857 39.0704 29.9902 38.9747 29.6016 39.0317C29.2131 39.0888 28.8617 39.2941 28.6213 39.6046L27.0206 41.8432C25.8205 41.1032 24.465 40.6517 23.0608 40.5243C21.6566 40.3969 20.242 40.5971 18.9284 41.1091C17.6147 41.6211 16.4377 42.431 15.4901 43.475C14.5424 44.519 13.85 45.7687 13.4672 47.1257C13.0845 48.4827 13.0218 49.91 13.2842 51.2953C13.5465 52.6806 14.1268 53.9861 14.9793 55.1092C15.8318 56.2322 16.9332 57.1421 18.197 57.7673C19.4608 58.3925 20.8524 58.7158 22.2623 58.712ZM22.2623 43.5245C23.309 43.5309 24.3357 43.811 25.2406 44.337L22.0679 48.7763L20.2986 47.007C20.0121 46.7303 19.6285 46.5773 19.2303 46.5807C18.8321 46.5842 18.4511 46.7439 18.1696 47.0255C17.888 47.3071 17.7282 47.688 17.7248 48.0862C17.7213 48.4844 17.8744 48.8681 18.1511 49.1545L21.1886 52.192C21.4733 52.4769 21.8595 52.6369 22.2623 52.637C22.3033 52.637 22.3458 52.637 22.3869 52.637C22.6067 52.6186 22.8199 52.5526 23.0116 52.4435C23.2033 52.3344 23.369 52.1848 23.4971 52.0052L27.4458 46.4785C28.0238 47.4173 28.3323 48.497 28.3373 49.5995C28.3373 50.801 27.981 51.9756 27.3135 52.9746C26.646 53.9736 25.6972 54.7523 24.5871 55.2121C23.4771 55.6719 22.2556 55.7922 21.0771 55.5578C19.8987 55.3234 18.8162 54.7448 17.9666 53.8952C17.117 53.0456 16.5384 51.9631 16.304 50.7847C16.0696 49.6062 16.1899 48.3848 16.6497 47.2747C17.1095 46.1646 17.8882 45.2159 18.8872 44.5483C19.8863 43.8808 21.0608 43.5245 22.2623 43.5245Z" stroke="#234D9F" stroke-width="1.5"/>
<path id="Vector_4" d="M22.2623 79.9747C23.9848 79.9732 25.6715 79.4836 27.1271 78.5627C28.5826 77.6417 29.7473 76.327 30.4862 74.7711C31.225 73.2152 31.5078 71.4817 31.3016 69.7716C31.0955 68.0616 30.4089 66.445 29.3215 65.1092L31.0908 62.6321C31.3067 62.3041 31.3872 61.9051 31.3153 61.5191C31.2434 61.133 31.0248 60.7898 30.7053 60.5614C30.3857 60.3331 29.9902 60.2374 29.6016 60.2944C29.2131 60.3515 28.8617 60.5568 28.6213 60.8673L27.0206 63.1059C25.8205 62.3659 24.465 61.9144 23.0608 61.787C21.6566 61.6596 20.242 61.8598 18.9284 62.3718C17.6147 62.8838 16.4377 63.6937 15.4901 64.7377C14.5424 65.7817 13.85 67.0314 13.4672 68.3884C13.0845 69.7454 13.0218 71.1727 13.2842 72.558C13.5465 73.9433 14.1268 75.2488 14.9793 76.3719C15.8318 77.4949 16.9332 78.4048 18.197 79.03C19.4608 79.6552 20.8524 79.9785 22.2623 79.9747ZM22.2623 64.7872C23.309 64.7936 24.3357 65.0737 25.2406 65.5997L22.0679 70.039L20.2986 68.2697C20.0121 67.993 19.6285 67.84 19.2303 67.8434C18.8321 67.8469 18.4511 68.0066 18.1696 68.2882C17.888 68.5698 17.7282 68.9507 17.7248 69.3489C17.7213 69.7471 17.8744 70.1308 18.1511 70.4172L21.1886 73.4547C21.4733 73.7396 21.8595 73.8996 22.2623 73.8997C22.3033 73.8997 22.3458 73.8997 22.3869 73.8997C22.6067 73.8813 22.8199 73.8153 23.0116 73.7062C23.2033 73.5971 23.369 73.4475 23.4971 73.2679L27.4458 67.7412C28.0238 68.68 28.3323 69.7597 28.3373 70.8622C28.3373 72.0637 27.981 73.2383 27.3135 74.2373C26.646 75.2363 25.6972 76.015 24.5871 76.4748C23.4771 76.9346 22.2556 77.0549 21.0771 76.8205C19.8987 76.5861 18.8162 76.0075 17.9666 75.1579C17.117 74.3083 16.5384 73.2258 16.304 72.0474C16.0696 70.8689 16.1899 69.6475 16.6497 68.5374C17.1095 67.4273 17.8882 66.4786 18.8872 65.811C19.8863 65.1435 21.0608 64.7872 22.2623 64.7872Z" stroke="#234D9F" stroke-width="1.5"/>
<path id="Vector_5" d="M37.4499 28.3373H51.1187C51.5214 28.3373 51.9078 28.1773 52.1926 27.8925C52.4774 27.6077 52.6374 27.2214 52.6374 26.8186C52.6374 26.4158 52.4774 26.0295 52.1926 25.7446C51.9078 25.4598 51.5214 25.2998 51.1187 25.2998H37.4499C37.0471 25.2998 36.6608 25.4598 36.376 25.7446C36.0912 26.0295 35.9312 26.4158 35.9312 26.8186C35.9312 27.2214 36.0912 27.6077 36.376 27.8925C36.6608 28.1773 37.0471 28.3373 37.4499 28.3373Z" stroke="#234D9F" stroke-width="1.5"/>
<path id="Vector_6" d="M37.4499 34.4125H51.1187C51.5214 34.4125 51.9078 34.2525 52.1926 33.9677C52.4774 33.6828 52.6374 33.2965 52.6374 32.8937C52.6374 32.491 52.4774 32.1047 52.1926 31.8198C51.9078 31.535 51.5214 31.375 51.1187 31.375H37.4499C37.0471 31.375 36.6608 31.535 36.376 31.8198C36.0912 32.1047 35.9312 32.491 35.9312 32.8937C35.9312 33.2965 36.0912 33.6828 36.376 33.9677C36.6608 34.2525 37.0471 34.4125 37.4499 34.4125Z" stroke="#234D9F" stroke-width="1.5"/>
<path id="Vector_7" d="M37.4499 49.6H51.1187C51.5214 49.6 51.9078 49.44 52.1926 49.1552C52.4774 48.8703 52.6374 48.484 52.6374 48.0812C52.6374 47.6785 52.4774 47.2922 52.1926 47.0073C51.9078 46.7225 51.5214 46.5625 51.1187 46.5625H37.4499C37.0471 46.5625 36.6608 46.7225 36.376 47.0073C36.0912 47.2922 35.9312 47.6785 35.9312 48.0812C35.9312 48.484 36.0912 48.8703 36.376 49.1552C36.6608 49.44 37.0471 49.6 37.4499 49.6Z" stroke="#234D9F" stroke-width="1.5"/>
<path id="Vector_8" d="M37.4499 55.6752H51.1187C51.5214 55.6752 51.9078 55.5152 52.1926 55.2304C52.4774 54.9455 52.6374 54.5592 52.6374 54.1564C52.6374 53.7536 52.4774 53.3673 52.1926 53.0825C51.9078 52.7977 51.5214 52.6377 51.1187 52.6377H37.4499C37.0471 52.6377 36.6608 52.7977 36.376 53.0825C36.0912 53.3673 35.9312 53.7536 35.9312 54.1564C35.9312 54.5592 36.0912 54.9455 36.376 55.2304C36.6608 55.5152 37.0471 55.6752 37.4499 55.6752Z" stroke="#234D9F" stroke-width="1.5"/>
<path id="Vector_9" d="M37.4499 70.8627H51.1187C51.5214 70.8627 51.9078 70.7027 52.1926 70.4179C52.4774 70.133 52.6374 69.7467 52.6374 69.3439C52.6374 68.9411 52.4774 68.5548 52.1926 68.27C51.9078 67.9852 51.5214 67.8252 51.1187 67.8252H37.4499C37.0471 67.8252 36.6608 67.9852 36.376 68.27C36.0912 68.5548 35.9312 68.9411 35.9312 69.3439C35.9312 69.7467 36.0912 70.133 36.376 70.4179C36.6608 70.7027 37.0471 70.8627 37.4499 70.8627Z" stroke="#234D9F" stroke-width="1.5"/>
<path id="Vector_10" d="M37.4499 76.9379H51.1187C51.5214 76.9379 51.9078 76.7779 52.1926 76.4931C52.4774 76.2082 52.6374 75.8219 52.6374 75.4191C52.6374 75.0163 52.4774 74.63 52.1926 74.3452C51.9078 74.0604 51.5214 73.9004 51.1187 73.9004H37.4499C37.0471 73.9004 36.6608 74.0604 36.376 74.3452C36.0912 74.63 35.9312 75.0163 35.9312 75.4191C35.9312 75.8219 36.0912 76.2082 36.376 76.4931C36.6608 76.7779 37.0471 76.9379 37.4499 76.9379Z" stroke="#234D9F" stroke-width="1.5"/>
</g>
</svg>
