<svg width="20" height="20" viewBox="0 0 20 20" fill="none" xmlns="http://www.w3.org/2000/svg">
<g id="filter_filters_funnel_list_navigation_sort_sorting_icon_123212 1" clip-path="url(#clip0_12_3461)">
<g id="Layer 2">
<path id="Vector" d="M17.5 5.62524H6.875C6.70924 5.62524 6.55027 5.5594 6.43306 5.44219C6.31585 5.32498 6.25 5.166 6.25 5.00024C6.25 4.83448 6.31585 4.67551 6.43306 4.5583C6.55027 4.44109 6.70924 4.37524 6.875 4.37524H17.5C17.6658 4.37524 17.8247 4.44109 17.9419 4.5583C18.0592 4.67551 18.125 4.83448 18.125 5.00024C18.125 5.166 18.0592 5.32498 17.9419 5.44219C17.8247 5.5594 17.6658 5.62524 17.5 5.62524Z" fill="white"/>
<path id="Vector_2" d="M4.375 5.62524H2.5C2.33424 5.62524 2.17527 5.5594 2.05806 5.44219C1.94085 5.32498 1.875 5.166 1.875 5.00024C1.875 4.83448 1.94085 4.67551 2.05806 4.5583C2.17527 4.44109 2.33424 4.37524 2.5 4.37524H4.375C4.54076 4.37524 4.69973 4.44109 4.81694 4.5583C4.93415 4.67551 5 4.83448 5 5.00024C5 5.166 4.93415 5.32498 4.81694 5.44219C4.69973 5.5594 4.54076 5.62524 4.375 5.62524Z" fill="white"/>
<path id="Vector_3" d="M13.125 10.6252H2.5C2.33424 10.6252 2.17527 10.5594 2.05806 10.4422C1.94085 10.325 1.875 10.166 1.875 10.0002C1.875 9.83448 1.94085 9.67551 2.05806 9.5583C2.17527 9.44109 2.33424 9.37524 2.5 9.37524H13.125C13.2908 9.37524 13.4497 9.44109 13.5669 9.5583C13.6842 9.67551 13.75 9.83448 13.75 10.0002C13.75 10.166 13.6842 10.325 13.5669 10.4422C13.4497 10.5594 13.2908 10.6252 13.125 10.6252Z" fill="white"/>
<path id="Vector_4" d="M6.875 15.6252H2.5C2.33424 15.6252 2.17527 15.5594 2.05806 15.4422C1.94085 15.325 1.875 15.166 1.875 15.0002C1.875 14.8345 1.94085 14.6755 2.05806 14.5583C2.17527 14.4411 2.33424 14.3752 2.5 14.3752H6.875C7.04076 14.3752 7.19973 14.4411 7.31694 14.5583C7.43415 14.6755 7.5 14.8345 7.5 15.0002C7.5 15.166 7.43415 15.325 7.31694 15.4422C7.19973 15.5594 7.04076 15.6252 6.875 15.6252Z" fill="white"/>
<path id="Vector_5" d="M5.625 6.87524C5.25416 6.87524 4.89165 6.76528 4.58331 6.55925C4.27496 6.35322 4.03464 6.06039 3.89273 5.71778C3.75081 5.37516 3.71368 4.99816 3.78603 4.63445C3.85838 4.27074 4.03695 3.93664 4.29918 3.67442C4.5614 3.4122 4.89549 3.23362 5.25921 3.16127C5.62292 3.08893 5.99992 3.12606 6.34253 3.26797C6.68514 3.40989 6.97798 3.65021 7.18401 3.95855C7.39003 4.26689 7.5 4.6294 7.5 5.00024C7.5 5.49753 7.30246 5.97444 6.95083 6.32607C6.5992 6.6777 6.12228 6.87524 5.625 6.87524ZM5.625 4.37524C5.50139 4.37524 5.38055 4.4119 5.27777 4.48058C5.17499 4.54925 5.09488 4.64686 5.04758 4.76107C5.00027 4.87527 4.98789 5.00094 5.01201 5.12218C5.03613 5.24341 5.09565 5.35478 5.18306 5.44219C5.27047 5.52959 5.38183 5.58912 5.50307 5.61324C5.62431 5.63735 5.74997 5.62497 5.86418 5.57767C5.97838 5.53036 6.07599 5.45026 6.14467 5.34748C6.21335 5.2447 6.25 5.12386 6.25 5.00024C6.25 4.83448 6.18415 4.67551 6.06694 4.5583C5.94973 4.44109 5.79076 4.37524 5.625 4.37524Z" fill="white"/>
<path id="Vector_6" d="M14.375 11.8752C14.0042 11.8752 13.6416 11.7653 13.3333 11.5593C13.025 11.3532 12.7846 11.0604 12.6427 10.7178C12.5008 10.3752 12.4637 9.99817 12.536 9.63445C12.6084 9.27074 12.787 8.93664 13.0492 8.67442C13.3114 8.4122 13.6455 8.23362 14.0092 8.16127C14.3729 8.08893 14.7499 8.12606 15.0925 8.26797C15.4351 8.40989 15.728 8.65021 15.934 8.95855C16.14 9.26689 16.25 9.62941 16.25 10.0002C16.25 10.4975 16.0525 10.9744 15.7008 11.3261C15.3492 11.6777 14.8723 11.8752 14.375 11.8752ZM14.375 9.37525C14.2514 9.37525 14.1306 9.4119 14.0278 9.48058C13.925 9.54925 13.8449 9.64686 13.7976 9.76107C13.7503 9.87527 13.7379 10.0009 13.762 10.1222C13.7861 10.2434 13.8457 10.3548 13.9331 10.4422C14.0205 10.5296 14.1318 10.5891 14.2531 10.6132C14.3743 10.6374 14.5 10.625 14.6142 10.5777C14.7284 10.5304 14.826 10.4503 14.8947 10.3475C14.9633 10.2447 15 10.1239 15 10.0002C15 9.83448 14.9342 9.67551 14.8169 9.5583C14.6997 9.44109 14.5408 9.37525 14.375 9.37525Z" fill="white"/>
<path id="Vector_7" d="M8.125 16.8752C7.75416 16.8752 7.39165 16.7653 7.08331 16.5593C6.77496 16.3532 6.53464 16.0604 6.39273 15.7178C6.25081 15.3752 6.21368 14.9982 6.28603 14.6345C6.35838 14.2707 6.53695 13.9366 6.79918 13.6744C7.0614 13.4122 7.39549 13.2336 7.75921 13.1613C8.12292 13.0889 8.49992 13.1261 8.84253 13.268C9.18514 13.4099 9.47798 13.6502 9.68401 13.9586C9.89003 14.2669 10 14.6294 10 15.0002C10 15.4975 9.80246 15.9744 9.45083 16.3261C9.0992 16.6777 8.62228 16.8752 8.125 16.8752ZM8.125 14.3752C8.00139 14.3752 7.88055 14.4119 7.77777 14.4806C7.67499 14.5493 7.59488 14.6469 7.54758 14.7611C7.50027 14.8753 7.48789 15.0009 7.51201 15.1222C7.53613 15.2434 7.59565 15.3548 7.68306 15.4422C7.77047 15.5296 7.88183 15.5891 8.00307 15.6132C8.12431 15.6374 8.24997 15.625 8.36418 15.5777C8.47838 15.5304 8.57599 15.4503 8.64467 15.3475C8.71335 15.2447 8.75 15.1239 8.75 15.0002C8.75 14.8345 8.68415 14.6755 8.56694 14.5583C8.44973 14.4411 8.29076 14.3752 8.125 14.3752Z" fill="white"/>
<path id="Vector_8" d="M17.5 10.6252H15.625C15.4592 10.6252 15.3003 10.5594 15.1831 10.4422C15.0658 10.325 15 10.166 15 10.0002C15 9.83448 15.0658 9.67551 15.1831 9.5583C15.3003 9.44109 15.4592 9.37524 15.625 9.37524H17.5C17.6658 9.37524 17.8247 9.44109 17.9419 9.5583C18.0592 9.67551 18.125 9.83448 18.125 10.0002C18.125 10.166 18.0592 10.325 17.9419 10.4422C17.8247 10.5594 17.6658 10.6252 17.5 10.6252Z" fill="white"/>
<path id="Vector_9" d="M17.5 15.6252H9.375C9.20924 15.6252 9.05027 15.5594 8.93306 15.4422C8.81585 15.325 8.75 15.166 8.75 15.0002C8.75 14.8345 8.81585 14.6755 8.93306 14.5583C9.05027 14.4411 9.20924 14.3752 9.375 14.3752H17.5C17.6658 14.3752 17.8247 14.4411 17.9419 14.5583C18.0592 14.6755 18.125 14.8345 18.125 15.0002C18.125 15.166 18.0592 15.325 17.9419 15.4422C17.8247 15.5594 17.6658 15.6252 17.5 15.6252Z" fill="white"/>
</g>
</g>
<defs>
<clipPath id="clip0_12_3461">
<rect width="20" height="20" fill="white" transform="translate(0 0.000244141)"/>
</clipPath>
</defs>
</svg>
