<svg width="69" height="99" viewBox="0 0 69 99" fill="none" xmlns="http://www.w3.org/2000/svg">
<g id="Group">
<g id="Group_2">
<path id="Vector" d="M66.4865 2.9725C65.4346 1.789 64.1195 1.13157 62.5415 1H45.578C44.789 1 44.2302 1.32882 43.9014 1.98625C43.5726 2.64368 43.5726 3.30132 43.9014 3.95875C44.2302 4.61618 44.789 4.945 45.578 4.945H59.5828V6.72025H45.578C44.789 6.72025 44.2302 7.04906 43.9014 7.7065C43.5726 8.36393 43.5726 8.98862 43.9014 9.58037C44.2302 10.1721 44.789 10.468 45.578 10.468H59.5828V12.4405H45.578C44.789 12.4405 44.2302 12.7693 43.9014 13.4267C43.5726 14.0842 43.5726 14.7089 43.9014 15.3006C44.2302 15.8924 44.789 16.1882 45.578 16.1882H59.5828V18.1607H45.578C44.789 18.1607 44.2302 18.4896 43.9014 19.147C43.5726 19.8044 43.5726 20.4291 43.9014 21.0209C44.2302 21.6126 44.789 21.9085 45.578 21.9085H59.5828V23.881H45.578C44.789 23.881 44.2302 24.2098 43.9014 24.8672C43.5726 25.5247 43.5726 26.1494 43.9014 26.7411C44.2302 27.3329 44.789 27.6287 45.578 27.6287H59.5828V29.6012H45.578C44.3945 29.6012 43.8028 30.2259 43.8028 31.4751C43.8028 32.7243 44.3945 33.349 45.578 33.349H59.5828V35.3215H45.578C44.789 35.3215 44.2302 35.6174 43.9014 36.2091C43.5726 36.8009 43.5726 37.4256 43.9014 38.083C44.2302 38.7404 44.789 39.0692 45.578 39.0692H59.5828V40.8445H45.578C44.789 40.8445 44.2302 41.1733 43.9014 41.8307C43.5726 42.4882 43.5726 43.1458 43.9014 43.8032C44.2302 44.4607 44.789 44.7895 45.578 44.7895H59.5828V46.5647H45.578C44.789 46.5647 44.2302 46.8936 43.9014 47.551C43.5726 48.2084 43.5726 48.8331 43.9014 49.4249C44.2302 50.0166 44.789 50.3125 45.578 50.3125H59.5828V52.285H45.578V56.0327H59.5828V92.7212C59.5828 94.4308 60.3061 95.647 61.7525 96.3704C63.199 97.0937 64.6126 97.0937 65.9934 96.3704C67.3741 95.647 68.0645 94.4308 68.0645 92.7212V6.9175C68.0645 5.47106 67.5385 4.156 66.4865 2.9725Z" stroke="#234D9F" stroke-width="1.5"/>
<path id="Vector_2" d="M40.0555 68.7554C37.0309 66.454 33.6119 66.3554 29.7985 68.4595V43.606L24.4727 2.38075C24.4727 1.46018 23.9467 1 22.8947 1C21.5797 1.13157 20.8566 1.59175 20.725 2.38075L15.5965 43.606V68.4595C11.7831 66.3554 8.39687 66.454 5.43812 68.7554C2.47937 71.0567 1 73.9825 1 77.533C1 80.4261 1.98625 82.8587 3.95875 84.8312C5.93125 86.8037 8.42981 87.79 11.4542 87.79C14.3473 87.79 16.78 86.7381 18.7525 84.634C20.725 82.5299 21.7112 80.1629 21.7112 77.533V51.496H23.6837V77.533C23.6837 80.2945 24.6043 82.6615 26.4452 84.634C28.2862 86.6065 30.5218 87.6584 33.1517 87.79C33.0202 92.261 34.0064 95.417 36.1105 97.258C37.1624 98.1785 38.2146 98.2442 39.2665 97.4552C40.3184 96.6662 40.5157 95.68 39.8582 94.4965C39.0692 93.05 38.6091 92.0638 38.4775 91.5377C38.3459 91.0117 38.4118 89.4337 38.6747 86.8037C42.6197 84.9628 44.5922 81.8725 44.5922 77.533C44.5922 73.9825 43.0799 71.0567 40.0555 68.7554ZM15.1034 81.1821C14.1171 82.1684 12.9336 82.6615 11.5529 82.6615C10.1721 82.6615 8.98862 82.1684 8.00237 81.1821C7.01612 80.1959 6.523 78.9794 6.523 77.533C6.523 76.0866 7.01612 74.8701 8.00237 73.8839C8.98862 72.8976 10.1721 72.4045 11.5529 72.4045C12.9336 72.4045 14.1171 72.8976 15.1034 73.8839C16.0896 74.8701 16.5827 76.0866 16.5827 77.533C16.5827 78.9794 16.0896 80.1959 15.1034 81.1821ZM37.5899 81.1821C36.6036 82.1684 35.4201 82.6615 34.0394 82.6615C32.6586 82.6615 31.4751 82.1684 30.4889 81.1821C29.5026 80.1959 29.0095 78.9794 29.0095 77.533C29.0095 76.0866 29.5026 74.8701 30.4889 73.8839C31.4751 72.8976 32.6586 72.4045 34.0394 72.4045C35.4201 72.4045 36.6036 72.8976 37.5899 73.8839C38.5761 74.8701 39.0692 76.0866 39.0692 77.533C39.0692 78.9794 38.5761 80.1959 37.5899 81.1821Z" stroke="#234D9F" stroke-width="1.5"/>
</g>
</g>
</svg>
