<svg width="62" height="59" viewBox="0 0 62 59" fill="none" xmlns="http://www.w3.org/2000/svg">
<g id="Layer 1">
<path id="best buy" d="M1 29.0154L12.3334 29.3392M19.8461 44.4016L9.42778 44.4721L14.1055 29.3392H19.8461M56.0149 43.7855C67.4388 25.3841 52.8453 0.624029 30.7339 1.00433C22.983 1.01171 15.5517 4.01485 10.0709 9.35464C4.59017 14.6944 1.50777 21.9346 1.5002 29.4862C1.10986 51.0239 26.5183 65.2496 45.4055 54.117L58.8253 57.92C58.9777 57.9635 59.1394 57.9664 59.2933 57.9281C59.4473 57.8898 59.5878 57.8118 59.7001 57.7024C59.8125 57.5929 59.8925 57.456 59.9318 57.3061C59.9711 57.1561 59.9682 56.9986 59.9234 56.85L56.0149 43.7855ZM46.5843 35.3657C46.896 35.6865 47.1129 36.0834 47.212 36.5145C47.311 36.9456 47.2885 37.3948 47.1469 37.8145C47.0053 38.2342 46.7498 38.6087 46.4075 38.8984C46.0652 39.1881 45.6488 39.3823 45.2025 39.4602C45.067 39.4892 44.9404 39.5486 44.8326 39.6337C44.7248 39.7187 44.6389 39.827 44.5815 39.95C44.5242 40.0731 44.4971 40.2074 44.5023 40.3424C44.5076 40.4775 44.545 40.6094 44.6118 40.7279C44.8204 41.1032 44.9264 41.5245 44.9195 41.9513C44.9126 42.3781 44.7931 42.796 44.5725 43.1648C44.3519 43.5336 44.0376 43.8408 43.6598 44.057C43.282 44.2731 42.8535 44.3909 42.4155 44.399H21.6182V28.4746C22.8127 25.2903 28.038 22.0602 29.1075 18.0646C29.4014 15.9509 29.2956 13.8027 28.7953 11.7262C34.9756 10.0124 35.0875 19.8723 33.854 23.1682C33.8173 23.2967 33.8114 23.4317 33.8368 23.5627C33.8622 23.6938 33.9182 23.8174 34.0004 23.924C34.0827 24.0306 34.189 24.1174 34.3112 24.1776C34.4334 24.2377 34.5681 24.2697 34.705 24.2711H45.5616C46.103 24.327 46.6028 24.5795 46.9616 24.9785C47.3204 25.3774 47.5118 25.8933 47.4977 26.4235C47.4977 28.036 46.5478 28.5329 46.3891 28.5558C46.1624 28.5677 45.949 28.6639 45.7929 28.8245C45.6368 28.9851 45.5498 29.1979 45.5498 29.419C45.5498 29.6402 45.6368 29.853 45.7929 30.0136C45.949 30.1742 46.1624 30.2703 46.3891 30.2823C46.8123 30.3546 47.1909 30.5825 47.4466 30.9189C47.7023 31.2553 47.8156 31.6745 47.7631 32.09C47.7618 32.4778 47.6649 32.8596 47.4806 33.2033C47.2963 33.547 47.0299 33.8425 46.704 34.065C46.6013 34.1378 46.5158 34.2311 46.4532 34.3387C46.3906 34.4463 46.3523 34.5657 46.341 34.6889C46.3296 34.8121 46.3455 34.9362 46.3875 35.0529C46.4294 35.1696 46.4965 35.2763 46.5843 35.3657ZM16.9758 40.9434C17.2105 40.9434 17.4355 41.0342 17.6014 41.1959C17.7674 41.3575 17.8606 41.5768 17.8606 41.8054C17.8606 42.034 17.7674 42.2533 17.6014 42.4149C17.4355 42.5766 17.2105 42.6674 16.9758 42.6674C16.7535 42.6508 16.5459 42.553 16.3945 42.3936C16.243 42.2343 16.1588 42.0251 16.1588 41.8079C16.1588 41.5907 16.243 41.3816 16.3945 41.2222C16.5459 41.0629 16.7535 40.9651 16.9758 40.9485V40.9434Z" stroke="#234D9F" stroke-width="2"/>
</g>
</svg>
