<svg width="52" height="90" viewBox="0 0 52 90" fill="none" xmlns="http://www.w3.org/2000/svg">
<g id="barber_pole">
<path id="Vector" d="M8.6 60.185V50.21L42.8 41.185V50.685V58.19L8.6 67.215V59.71M46.6 67.5H44.7V21.9H46.6C48.69 21.9 50.4 20.19 50.4 18.1C50.4 16.01 48.69 14.3 46.6 14.3H46.505C46.03 11.07 43.275 8.6 39.95 8.6H38.905C38.43 4.325 34.82 1 30.45 1H20.95C16.58 1 12.97 4.325 12.495 8.6H11.45C8.125 8.6 5.37 11.07 4.895 14.3H4.8C2.71 14.3 1 16.01 1 18.1C1 20.19 2.71 21.9 4.8 21.9H6.7V67.5H4.8C2.71 67.5 1 69.21 1 71.3C1 73.39 2.71 75.1 4.8 75.1H4.895C5.37 78.33 8.125 80.8 11.45 80.8H12.495C12.97 85.075 16.58 88.4 20.95 88.4H30.45C34.82 88.4 38.43 85.075 38.905 80.8H39.95C43.275 80.8 46.03 78.33 46.505 75.1H46.6C48.69 75.1 50.4 73.39 50.4 71.3C50.4 69.21 48.69 67.5 46.6 67.5ZM42.8 39.19L8.6 48.215V38.715V31.21L42.8 22.185V29.69V39.19ZM42.8 60.185V67.5H14.965L42.8 60.185ZM20.95 2.9H30.45C33.775 2.9 36.53 5.37 37.005 8.6H14.395C14.87 5.37 17.625 2.9 20.95 2.9ZM11.45 10.5H13.35H38.05H39.95C42.23 10.5 44.225 14.015 44.7 16.2H46.6C47.645 16.2 48.5 17.055 48.5 18.1C48.5 19.145 47.645 20 46.6 20H43.75H7.65H4.8C3.755 20 2.9 19.145 2.9 18.1C2.9 17.055 3.755 16.2 4.8 16.2H6.7C7.175 14.015 9.17 10.5 11.45 10.5ZM36.435 21.9L8.6 29.215V21.9H36.435ZM30.45 86.5H20.95C17.625 86.5 14.87 84.03 14.395 80.8H37.1C36.53 84.03 33.775 86.5 30.45 86.5ZM39.95 78.9H38.05H13.35H11.45C9.17 78.9 7.175 75.385 6.7 73.2H4.8C3.755 73.2 2.9 72.345 2.9 71.3C2.9 70.255 3.755 69.4 4.8 69.4H7.65H43.75H46.6C47.645 69.4 48.5 70.255 48.5 71.3C48.5 72.345 47.645 73.2 46.6 73.2H44.7C44.225 75.385 42.23 78.9 39.95 78.9Z" stroke="#234D9F" stroke-width="1.5"/>
</g>
</svg>
