<svg width="12" height="18" viewBox="0 0 12 18" fill="none" xmlns="http://www.w3.org/2000/svg">
<g id="1491254387-pindestinationmaplocation_82942 1" clip-path="url(#clip0_12_3494)">
<path id="Vector" d="M9.3228 1.80405C7.30386 0.595754 4.69521 0.595754 2.67745 1.80405C0.0770951 3.35878 -0.75535 6.38855 0.741394 8.85083L6.00013 17.5034L11.2589 8.85083C12.7556 6.38855 11.9243 3.35878 9.3228 1.80405ZM10.2204 8.34286L6.00131 15.2855L1.78106 8.34286C0.580352 6.36623 1.24702 3.93583 3.33464 2.68822C4.14459 2.20362 5.07177 1.96026 6.00013 1.96026C6.92849 1.96026 7.85566 2.20256 8.66561 2.68715C10.7532 3.93583 11.4211 6.36623 10.2204 8.34286Z" fill="white"/>
<path id="Vector_2" d="M5.99988 3.11108C4.36815 3.11108 3.03955 4.30344 3.03955 5.76784C3.03955 7.23225 4.36815 8.4246 5.99988 8.4246C7.63162 8.4246 8.96021 7.23225 8.96021 5.76784C8.96021 4.30344 7.6328 3.11108 5.99988 3.11108ZM5.99988 7.3619C5.0206 7.3619 4.22368 6.6467 4.22368 5.76784C4.22368 4.88899 5.0206 4.17379 5.99988 4.17379C6.97916 4.17379 7.77608 4.88899 7.77608 5.76784C7.77608 6.6467 6.97916 7.3619 5.99988 7.3619Z" fill="white"/>
</g>
<defs>
<clipPath id="clip0_12_3494">
<rect width="12" height="16.6058" fill="white" transform="translate(0 0.897461)"/>
</clipPath>
</defs>
</svg>
