<svg width="60" height="59" viewBox="0 0 60 59" fill="none" xmlns="http://www.w3.org/2000/svg">
<g id="Group 86">
<path id="Vector" d="M26.308 39.9733C26.0283 39.9803 25.75 39.9316 25.4899 39.8301C25.2299 39.7286 24.9934 39.5765 24.7948 39.3829L14.9488 29.7133C14.5598 29.3313 14.3413 28.8132 14.3413 28.273C14.3413 27.7328 14.5598 27.2147 14.9488 26.8327C15.3377 26.4507 15.8653 26.2361 16.4153 26.2361C16.9654 26.2361 17.4929 26.4507 17.8819 26.8327L26.2666 35.0672L42.0307 19.6161C42.2232 19.427 42.4519 19.2769 42.7035 19.1746C42.9551 19.0722 43.2248 19.0195 43.4972 19.0195C43.7696 19.0195 44.0393 19.0722 44.2909 19.1746C44.5425 19.2769 44.7712 19.427 44.9637 19.6161C45.1563 19.8052 45.3091 20.0298 45.4133 20.2769C45.5176 20.524 45.5712 20.7889 45.5712 21.0564C45.5712 21.3239 45.5176 21.5887 45.4133 21.8358C45.3091 22.083 45.1563 22.3075 44.9637 22.4966L27.7694 39.3829C27.3808 39.7615 26.8554 39.9737 26.308 39.9733Z" stroke="#234D9F" stroke-width="2"/>
<path id="Vector_2" d="M29.9767 58C24.3064 57.9917 18.7629 56.3522 14.031 53.2841C9.29901 50.2159 5.58594 45.8536 3.35048 40.736C1.11502 35.6184 0.45512 29.9698 1.4523 24.4879C2.44948 19.0061 5.06005 13.9313 8.96149 9.89035C12.8629 5.84945 17.8843 3.01954 23.4053 1.75025C28.9262 0.480948 34.7049 0.827874 40.0273 2.74816C45.3497 4.66845 49.9827 8.07797 53.3539 12.5555C56.7251 17.033 58.6868 22.3824 58.9967 27.9427C59.0278 28.4811 58.8401 29.0097 58.4748 29.4123C58.1095 29.815 57.5964 30.0589 57.0482 30.0903C56.775 30.1069 56.5013 30.0701 56.2427 29.9821C55.9841 29.8942 55.7457 29.7569 55.5415 29.578C55.3372 29.3992 55.171 29.1824 55.0525 28.9401C54.934 28.6979 54.8655 28.435 54.8509 28.1666C54.5697 23.063 52.6657 18.1746 49.4068 14.1896C46.1479 10.2047 41.6984 7.32397 36.6848 5.95307C31.6712 4.58217 26.3461 4.79016 21.4592 6.54776C16.5723 8.30535 12.3698 11.524 9.44347 15.7505C6.51714 19.9771 5.01437 24.9986 5.14676 30.1079C5.27915 35.2173 7.04003 40.1573 10.1815 44.2321C13.3229 48.307 17.6866 51.3116 22.6582 52.8228C27.6298 54.3341 32.9589 54.2758 37.895 52.6562C41.0282 51.6322 43.9208 50.0021 46.4023 47.8624C48.8837 45.7226 50.9036 43.1165 52.3428 40.1977C52.452 39.9424 52.6132 39.7118 52.8163 39.5198C53.0194 39.3278 53.2603 39.1786 53.5242 39.0811C53.788 38.9837 54.0694 38.9401 54.351 38.9531C54.6326 38.9661 54.9085 39.0354 55.1619 39.1567C55.4153 39.2781 55.6409 39.4489 55.8248 39.6587C56.0087 39.8685 56.147 40.113 56.2314 40.3772C56.3158 40.6414 56.3445 40.9196 56.3156 41.195C56.2867 41.4705 56.201 41.7372 56.0636 41.9789C54.3887 45.3876 52.0341 48.4314 49.1393 50.9299C46.2446 53.4284 42.8685 55.3307 39.2112 56.5241C36.234 57.5009 33.1157 57.9993 29.9767 58Z" stroke="#234D9F" stroke-width="2"/>
</g>
</svg>
