<svg width="104" height="71" viewBox="0 0 104 71" fill="none" xmlns="http://www.w3.org/2000/svg">
<g id="g21">
<g id="g27">
<path id="path29" d="M10.1071 10.2353C7.0945 10.2353 4.64286 12.7719 4.64286 15.8896V60.7141C4.64286 63.8318 7.0945 66.3684 10.1071 66.3684H93.8929C96.9055 66.3684 99.3571 63.8318 99.3571 60.7141V10.2861C99.3571 7.1684 96.9055 4.63175 93.8929 4.63175H46.6887L43.3009 9.45992C42.9603 9.94655 42.4011 10.2353 41.8073 10.2353H10.1071ZM93.8929 70H10.1071C5.08546 70 1 65.8346 1 60.7141V15.8896C1 10.7691 5.08546 6.60369 10.1071 6.60369H40.8601L44.2498 1.77552C44.5904 1.28889 45.1478 1.00018 45.7416 1.00018H93.8929C98.9145 1.00018 103 5.16559 103 10.2861V60.7141C103 65.8346 98.9145 70 93.8929 70Z" stroke="#234D9F" stroke-width="1.5"/>
</g>
<g id="g31">
<path id="path33" d="M97.3214 23.001H6.67857C5.752 23.001 5 22.105 5 21.001C5 19.897 5.752 19.001 6.67857 19.001H97.3214C98.248 19.001 99 19.897 99 21.001C99 22.105 98.248 23.001 97.3214 23.001Z" stroke="#234D9F" stroke-width="1.5"/>
</g>
<g id="g39">
<path id="path41" d="M52.0001 30.0529C43.9658 30.0529 37.4287 36.5698 37.4287 44.5792C37.4287 52.5886 43.9658 59.1055 52.0001 59.1055C60.0345 59.1055 66.5716 52.5886 66.5716 44.5792C66.5716 36.5698 60.0345 30.0529 52.0001 30.0529Z" stroke="#234D9F" stroke-width="1.5"/>
</g>
<g id="g43">
<path id="path45" d="M94.8714 33.6846H85.6295C85.1632 33.6846 84.7861 33.3087 84.7861 32.8439V27.2621C84.7861 26.7973 85.1632 26.4214 85.6295 26.4214H94.8714C95.3377 26.4214 95.7147 26.7973 95.7147 27.2621V32.8439C95.7147 33.3087 95.3377 33.6846 94.8714 33.6846Z" stroke="#234D9F" stroke-width="1.5"/>
</g>
<g id="g47">
<path id="path49" d="M17.7929 31.8691H6.42143C5.6368 31.8691 5 31.0557 5 30.0534C5 29.051 5.6368 28.2376 6.42143 28.2376H17.7929C18.5775 28.2376 19.2143 29.051 19.2143 30.0534C19.2143 31.0557 18.5775 31.8691 17.7929 31.8691Z" stroke="#234D9F" stroke-width="1.5"/>
</g>
<g id="g51">
<path id="path53" d="M39.25 2.81669V4.7959H26.5V2.81669C26.5 1.81801 27.3196 1.00091 28.3214 1.00091H37.4286C38.4304 1.00091 39.25 1.81801 39.25 2.81669Z" stroke="#234D9F" stroke-width="1.5"/>
</g>
<g id="g55">
<path id="path57" d="M22.8572 2.81618V4.79538H10.1072C8.814 4.79538 7.57543 5.06775 6.46436 5.57617V2.81618C6.46436 1.8175 7.284 1.00039 8.28578 1.00039H21.0358C22.0376 1.00039 22.8572 1.8175 22.8572 2.81618Z" stroke="#234D9F" stroke-width="1.5"/>
</g>
</g>
</svg>
