<svg width="58" height="57" viewBox="0 0 58 57" fill="none" xmlns="http://www.w3.org/2000/svg">
<g id="Group 85">
<path id="Vector" d="M37.2905 49.709C44.9871 49.709 51.2265 43.5566 51.2265 35.9673C51.2265 28.3779 44.9871 22.2256 37.2905 22.2256C29.5938 22.2256 23.3545 28.3779 23.3545 35.9673C23.3545 43.5566 29.5938 49.709 37.2905 49.709Z" stroke="#234D9F" stroke-width="2" stroke-miterlimit="10"/>
<path id="Vector_2" d="M46.8936 46.0352L56.9996 56.0003" stroke="#234D9F" stroke-width="2" stroke-linecap="round" stroke-linejoin="round"/>
<g id="Group">
<path id="Vector_3" d="M26.0602 49.9921C21.1468 49.9921 16.3438 48.5554 12.2585 45.8638C8.17318 43.1721 4.98906 39.3464 3.1088 34.8703C1.22854 30.3942 0.736575 25.4689 1.69512 20.7171C2.65367 15.9654 5.01968 11.6006 8.49396 8.17474C11.9682 4.7489 16.3947 2.41588 21.2137 1.4707C26.0326 0.52551 31.0276 1.01061 35.567 2.86466C40.1063 4.71871 43.9862 7.85843 46.7159 11.8868C49.4456 15.9151 50.9026 20.6512 50.9026 25.4961" stroke="#234D9F" stroke-width="2" stroke-linecap="round" stroke-linejoin="round"/>
<path id="Vector_4" d="M26.0605 1V21.7619" stroke="#234D9F" stroke-width="2" stroke-miterlimit="10" stroke-linecap="round"/>
<g id="Group_2">
<path id="Vector_5" d="M20.2921 37.9434C15.5951 38.1792 10.9548 39.0632 6.50684 40.5698" stroke="#234D9F" stroke-width="2" stroke-linecap="round" stroke-linejoin="round"/>
<path id="Vector_6" d="M6.50684 10.4219C11.0541 12.14 18.1129 13.2483 26.0611 13.2483C34.0093 13.2483 41.0682 12.14 45.6154 10.4219" stroke="#234D9F" stroke-width="2" stroke-miterlimit="10"/>
</g>
<path id="Vector_7" d="M40.3734 18.6393C38.5689 8.44778 32.8435 1 26.0597 1C17.8277 1 11.1543 11.9673 11.1543 25.4961C11.1543 39.0249 17.8277 49.9921 26.0597 49.9921" stroke="#234D9F" stroke-width="2" stroke-linecap="round" stroke-linejoin="round"/>
<path id="Vector_8" d="M22.7331 25.4961H1" stroke="#234D9F" stroke-width="2" stroke-linecap="round" stroke-linejoin="round"/>
</g>
</g>
</svg>
