<svg width="56" height="56" viewBox="0 0 56 56" fill="none" xmlns="http://www.w3.org/2000/svg">
<g id="edit_modify_icon-icons.com_72390 1">
<g id="Group">
<path id="Vector" d="M22.5737 27.9367L22.5725 27.9373C22.5713 27.9386 22.5713 27.9398 22.5713 27.9398C22.4869 28.0253 22.4236 28.1287 22.3719 28.2389C22.3577 28.2666 22.3479 28.2918 22.3368 28.3207C22.3257 28.349 22.3103 28.3749 22.3017 28.405L19.8353 37.5287C19.738 37.8906 19.8414 38.2764 20.1054 38.5417C20.3048 38.7404 20.5719 38.8481 20.8445 38.8481C20.9356 38.8481 21.0285 38.8364 21.1171 38.8112L29.89 36.4401C29.9479 36.45 30.0032 36.474 30.0617 36.474C30.33 36.474 30.5977 36.3718 30.802 36.1675L45.0088 21.9595C45.7657 21.202 46.1842 20.1946 46.1842 19.1232C46.1842 18.0518 45.7657 17.0444 45.0088 16.2869L42.4525 13.7306C40.938 12.2149 38.2925 12.2173 36.7805 13.7306L22.5737 27.9367ZM38.2611 15.2093C38.9836 14.485 40.2488 14.4856 40.9737 15.21L43.53 17.7656C43.8931 18.1281 44.0925 18.61 44.0925 19.1232C44.0925 19.6364 43.8931 20.1176 43.53 20.4807L42.7608 21.25L37.4906 15.9804L38.2611 15.2093ZM36.0113 17.4598L41.2814 22.7293L30.0629 33.9484L24.7916 28.6783L36.0113 17.4598ZM24.1756 31.0198L27.9522 34.797L22.3306 36.3176L23.85 30.6955L24.1756 31.0198Z" fill="#234D9F"/>
<path id="Vector_2" d="M37.3522 22.867L35.8726 21.3877L29.3086 27.9536L30.7882 29.4328L37.3522 22.867Z" fill="#234D9F"/>
<path id="Vector_3" d="M12.8991 45.6411H41.0467C43.2597 45.6411 45.0578 43.8411 45.0578 41.6288V27.4639H42.9661V41.6294C42.9661 42.6885 42.1058 43.5488 41.0467 43.5488H13.9458V15.7925H31.7994V13.7002H12.8991C12.3212 13.7002 11.8535 14.1685 11.8535 14.7463V44.5943C11.8535 45.1722 12.3206 45.6411 12.8991 45.6411Z" fill="#234D9F"/>
</g>
</g>
</svg>
