<svg width="15" height="15" viewBox="0 0 15 15" fill="none" xmlns="http://www.w3.org/2000/svg">
<g id="Group">
<g id="Group_2">
<path id="Vector" d="M11.1244 6.08699C11.1244 8.87645 8.86556 11.1369 6.08026 11.1369C3.29495 11.1369 1.03613 8.87645 1.03613 6.08699C1.03613 3.29753 3.29495 1.03711 6.08026 1.03711C8.86556 1.03711 11.1244 3.29753 11.1244 6.08699Z" stroke="#234D9F"/>
</g>
<path id="Vector_2" d="M10.3663 10.4135L10.0456 10.0466L9.67014 10.363C8.69932 11.181 7.44763 11.6739 6.08037 11.6739C3.0014 11.6739 0.5 9.1707 0.5 6.08668C0.5 3.00322 3.00138 0.5 6.08037 0.5C9.15993 0.5 11.6613 3.00325 11.6613 6.08668C11.6613 7.44849 11.1741 8.69627 10.3645 9.66549L10.0526 10.0388L10.4172 10.3608L10.4208 10.3641L14.4893 14.4369C14.5036 14.4512 14.5036 14.4753 14.4893 14.4895L14.8431 14.8429M10.3663 10.4135L10.7482 9.98604C11.6302 8.93024 12.1613 7.56995 12.1613 6.08668C12.1613 2.72757 9.43653 0 6.08037 0C2.72474 0 0 2.72757 0 6.08668C0 9.44632 2.72474 12.1739 6.08037 12.1739C7.57014 12.1739 8.93491 11.6363 9.99229 10.7454C9.9923 10.7454 9.99231 10.7454 9.99232 10.7454C9.99735 10.7512 10.0026 10.7567 10.008 10.7623C10.0106 10.765 10.0133 10.7678 10.0159 10.7706L14.0845 14.8429C14.2937 15.0524 14.6333 15.0524 14.8431 14.8429M10.3663 10.4135L10.3664 10.4136L10.3715 10.4189L10.3742 10.4218L14.4382 14.4895L14.4382 14.4895C14.4519 14.5032 14.475 14.5039 14.4898 14.4891L14.8431 14.8429M10.3663 10.4135L10.7482 9.98605C10.7573 9.9941 10.7659 10.0022 10.7745 10.0107L14.8431 14.0836C15.0523 14.293 15.0523 14.6335 14.8431 14.8429M11.5883 6.08668C11.5883 3.04476 9.12087 0.574056 6.08037 0.574056C3.04038 0.574056 0.572942 3.04479 0.572942 6.08668C0.572942 9.12906 3.04034 11.5998 6.08037 11.5998C9.1209 11.5998 11.5883 9.1291 11.5883 6.08668Z" stroke="#234D9F"/>
</g>
</svg>
