<svg width="58" height="93" viewBox="0 0 58 93" fill="none" xmlns="http://www.w3.org/2000/svg">
<g id="Dress">
<path id="Shape" fill-rule="evenodd" clip-rule="evenodd" d="M39.1684 39.1898C43.7368 32.8744 46.6842 24.5028 46.6842 18.6279C46.6842 14.8093 46.3895 9.22823 43.7368 8.05326V2.47218C43.7368 0.856606 42.5579 1.00348 40.9368 1.00348H40.6421C39.1684 1.00348 37.8421 0.856606 37.8421 2.47218V10.4032C35.3368 10.8438 29 12.0188 29 18.6279C29 12.3125 22.6632 10.5501 20.1579 10.1095V2.47218C20.1579 0.856606 18.9789 1.00348 17.3579 1.00348H17.0632C15.5895 1.00348 14.2632 0.856606 14.2632 2.47218V7.75952C11.6105 8.93449 11.3158 14.6624 11.3158 18.6279C11.3158 24.5028 14.2632 32.8744 18.8316 39.1898C8.36842 47.8552 1 71.6482 1 83.251C1 87.0696 13.5263 92.0632 29 92.0632C44.4737 92.0632 57 86.9227 57 83.251C57 71.6482 49.6316 47.8552 39.1684 39.1898Z" stroke="#234D9F" stroke-width="1.5"/>
<path id="Shape_2" d="M17.3579 39.043C17.3579 39.043 26.7895 42.8616 40.7895 39.043" stroke="#234D9F" stroke-width="1.5"/>
</g>
</svg>
